<svg version="1" xmlns="http://www.w3.org/2000/svg" width="237.333" height="237.333" viewBox="0 0 178.000000 178.000000"><path d="M31.1 6.5C20.2 9.9 9.6 21.1 7 32.1.6 58.5 24.5 82.4 50.9 76c11.4-2.7 23.2-14.2 26-25.4L78 46h24l1.1 4.6c1.6 6.3 7.8 15.3 13.4 19.3l4.6 3.3-2.5 1.9c-6.2 4.9-18.8 7.9-33 7.9-7.1 0-19.5 2.9-25.4 5.9-2.2 1.1-6.4 4.2-9.3 6.9-5.1 4.6-5.8 4.9-12.2 5.4-12.4 1-23.6 8.8-29.4 20.6-2.5 5-2.8 6.8-2.8 15.2 0 8.4.3 10.2 2.8 15.2 3.6 7.4 10.1 13.9 17.5 17.5 5 2.5 6.8 2.8 15.2 2.8 8.4 0 10.2-.3 15.2-2.8C72.8 162 81 144.8 77 128.1c-1.7-7-7.9-16-14-20.3l-5-3.5 3.7-2.6c2.1-1.4 5.4-3.3 7.3-4.1 4.3-1.8 17-3.6 25.3-3.6 12.7 0 26-4.8 34.2-12.2 4.7-4.3 5.4-4.5 12.2-5 12.9-.9 24.1-8.6 30-20.6 2.5-5 2.8-6.8 2.8-15.2 0-8.4-.3-10.2-2.8-15.2C163 10.2 145.8 2 129.1 6c-11 2.6-22.4 13.4-25.5 24.1l-1.3 4.4H77.7l-1.3-4.4c-3-10.2-13.3-20.5-23.9-23.6-6-1.8-15.6-1.8-21.4 0zm21.5 13.3C61 24.1 65.4 31.5 65.4 41c0 13.7-9.6 23.4-23.4 23.4-9.7 0-16.9-4.5-21.6-13.4-2.5-4.8-2.5-15.2 0-20 6.4-12.3 20.5-17.2 32.2-11.2zm96 0c8.4 4.3 12.8 11.7 12.8 21.2 0 13.7-9.6 23.4-23.4 23.4-13.8 0-23.4-9.7-23.4-23.4 0-11.2 6.2-19.5 17.4-23.1 3.8-1.3 12.3-.3 16.6 1.9zm-96 96c8.4 4.3 12.8 11.7 12.8 21.2 0 13.7-9.6 23.4-23.4 23.4-9.7 0-16.9-4.5-21.6-13.4-2.5-4.8-2.5-15.2 0-20 6.4-12.3 20.5-17.2 32.2-11.2z"/></svg>